<svg width="215" height="85" viewBox="0 0 215 85" fill="none" xmlns="http://www.w3.org/2000/svg">
<path d="M15.4749 6.9375C15.1207 10.9792 14.1466 15.5 12.5526 20.5H0C0.531328 16.8333 1.28404 13.9583 2.25815 11.875C7.21721 10.4167 11.6228 8.77083 15.4749 6.9375ZM4.78195 84C14.0359 48 20.2126 21.3542 23.312 4.0625C23.312 3.52083 24.0205 2.70833 25.4373 1.625C26.8985 0.541667 28.1161 0 29.0902 0H53C46.7126 24.9583 42.3734 51.6042 39.9825 79.9375C39.9825 80.4792 39.274 81.2917 37.8571 82.375C36.4403 83.4583 35.2226 84 34.2043 84H4.78195Z" fill="#212121"/>
<path d="M74.8845 78.421H61.3592L59.3533 83.9581H46L50.7759 47.3203H75.5149L90.301 83.9581H76.8903L74.8845 78.421ZM71.7897 69.7791L68.1218 59.5846L64.454 69.7791H71.7897Z" fill="#212121"/>
<path d="M107.576 84.3203C104.52 84.3203 101.807 83.8718 99.4384 82.9749C97.1078 82.0779 95.2547 80.8359 93.8793 79.249C92.5038 77.662 91.7206 75.8681 91.5296 73.8672H103.737C103.89 74.7296 104.291 75.3679 104.94 75.7819C105.628 76.1958 106.488 76.4028 107.519 76.4028C108.169 76.4028 108.684 76.2821 109.067 76.0406C109.449 75.7646 109.64 75.4369 109.64 75.0574C109.64 74.4019 109.238 73.9362 108.436 73.6602C107.634 73.3842 106.277 73.0737 104.367 72.7287C102.036 72.3147 100.107 71.8662 98.5787 71.3833C97.0887 70.9003 95.7705 70.0723 94.6243 68.8993C93.5163 67.7264 92.9623 66.1049 92.9623 64.035C92.9623 62.2411 93.4781 60.6196 94.5097 59.1707C95.5795 57.6872 97.146 56.5315 99.2092 55.7035C101.272 54.8411 103.775 54.4098 106.717 54.4098C111.072 54.4098 114.473 55.3758 116.918 57.3077C119.402 59.2397 120.892 61.7581 121.388 64.863H110.098C109.907 64.0695 109.506 63.4658 108.895 63.0518C108.283 62.6033 107.462 62.3791 106.43 62.3791C105.781 62.3791 105.284 62.4998 104.94 62.7413C104.596 62.9483 104.424 63.276 104.424 63.7245C104.424 64.311 104.826 64.7595 105.628 65.07C106.43 65.346 107.71 65.6392 109.468 65.9497C111.798 66.3637 113.766 66.8294 115.371 67.3469C116.975 67.8644 118.37 68.7613 119.554 70.0378C120.739 71.2798 121.331 73.0047 121.331 75.2126C121.331 76.9376 120.777 78.49 119.669 79.87C118.561 81.2499 116.956 82.3366 114.855 83.1301C112.792 83.9236 110.366 84.3203 107.576 84.3203Z" fill="#212121"/>
<path d="M140.765 84.3203C137.708 84.3203 134.996 83.8718 132.627 82.9749C130.296 82.0779 128.443 80.8359 127.068 79.249C125.692 77.662 124.909 75.8681 124.718 73.8672H136.925C137.078 74.7296 137.479 75.3679 138.129 75.7819C138.816 76.1958 139.676 76.4028 140.708 76.4028C141.357 76.4028 141.873 76.2821 142.255 76.0406C142.637 75.7646 142.828 75.4369 142.828 75.0574C142.828 74.4019 142.427 73.9362 141.625 73.6602C140.822 73.3842 139.466 73.0737 137.556 72.7287C135.225 72.3147 133.296 71.8662 131.767 71.3833C130.277 70.9003 128.959 70.0723 127.813 68.8993C126.705 67.7264 126.151 66.1049 126.151 64.035C126.151 62.2411 126.667 60.6196 127.698 59.1707C128.768 57.6872 130.335 56.5315 132.398 55.7035C134.461 54.8411 136.963 54.4098 139.905 54.4098C144.261 54.4098 147.661 55.3758 150.107 57.3077C152.59 59.2397 154.08 61.7581 154.577 64.863H143.287C143.096 64.0695 142.695 63.4658 142.083 63.0518C141.472 62.6033 140.65 62.3791 139.619 62.3791C138.969 62.3791 138.473 62.4998 138.129 62.7413C137.785 62.9483 137.613 63.276 137.613 63.7245C137.613 64.311 138.014 64.7595 138.817 65.07C139.619 65.346 140.899 65.6392 142.656 65.9497C144.987 66.3637 146.955 66.8294 148.559 67.3469C150.164 67.8644 151.559 68.7613 152.743 70.0378C153.927 71.2798 154.52 73.0047 154.52 75.2126C154.52 76.9376 153.966 78.49 152.858 79.87C151.75 81.2499 150.145 82.3366 148.043 83.1301C145.98 83.9236 143.554 84.3203 140.765 84.3203Z" fill="#212121"/>
<path d="M190.86 69.1063C190.86 69.8998 190.803 70.6588 190.688 71.3833H170.228C170.419 73.9017 171.585 75.1609 173.724 75.1609C175.1 75.1609 176.093 74.5916 176.705 73.4532H190.172C189.714 75.5231 188.74 77.386 187.25 79.042C185.798 80.6634 183.945 81.9571 181.691 82.9231C179.475 83.8546 177.029 84.3203 174.355 84.3203C171.145 84.3203 168.28 83.7166 165.758 82.5091C163.275 81.3017 161.326 79.5767 159.913 77.3343C158.537 75.0574 157.849 72.401 157.849 69.3651C157.849 66.3292 158.537 63.69 159.913 61.4476C161.326 59.1707 163.275 57.4285 165.758 56.221C168.28 55.0136 171.145 54.4098 174.355 54.4098C177.564 54.4098 180.411 55.0136 182.894 56.221C185.416 57.394 187.364 59.0844 188.74 61.2923C190.153 63.5003 190.86 66.1049 190.86 69.1063ZM177.965 66.3637C177.965 65.3977 177.621 64.6732 176.934 64.1902C176.246 63.6728 175.386 63.414 174.355 63.414C172.101 63.414 170.782 64.3972 170.4 66.3637H177.965Z" fill="#212121"/>
<path d="M215 74.1777V83.9581H210.186C201.322 83.9581 196.89 79.9735 196.89 72.0042V64.3455H192.878V54.7721H196.89V47.7343H209.613V54.7721H214.885V64.3455H209.613V72.2112C209.613 72.9012 209.785 73.4014 210.129 73.7119C210.511 74.0224 211.122 74.1777 211.963 74.1777H215Z" fill="#212121"/>
</svg>
